<svg width="36" height="45" viewBox="0 0 36 45" fill="none" xmlns="http://www.w3.org/2000/svg">
<path fill-rule="evenodd" clip-rule="evenodd" d="M17.7008 23.3115C19.2438 23.3115 20.4988 24.5665 20.4988 26.1095C20.4988 27.6525 19.2438 28.9075 17.7008 28.9075C16.1578 28.9075 14.9028 27.6525 14.9028 26.1095C14.9028 24.5665 16.1578 23.3115 17.7008 23.3115ZM12.9028 26.1095C12.9028 28.4225 14.5488 30.3585 16.7308 30.8085V37.8495H18.7308V30.7895C20.8818 30.3155 22.4988 28.4005 22.4988 26.1095C22.4988 25.5365 22.3808 24.9945 22.1948 24.4835L28.7288 20.7085L27.7288 18.9765L21.1428 22.7815C20.2698 21.8785 19.0528 21.3115 17.7008 21.3115C16.3478 21.3115 15.1308 21.8775 14.2578 22.7815L7.67277 18.9765L6.67277 20.7085L13.2058 24.4835C13.0198 24.9935 12.9028 25.5365 12.9028 26.1095ZM25.9268 23.6205C26.1728 24.4195 26.2978 25.2575 26.2978 26.1095C26.2978 30.0315 23.6458 33.4535 19.8488 34.4305L19.3508 32.4935C22.2628 31.7445 24.2978 29.1185 24.2978 26.1095C24.2978 25.4575 24.2028 24.8185 24.0138 24.2075L25.9268 23.6205ZM16.0518 32.4935L15.5538 34.4305C11.7568 33.4535 9.10477 30.0315 9.10477 26.1095C9.10477 25.2555 9.22977 24.4175 9.47477 23.6205L11.3878 24.2075C11.1998 24.8155 11.1048 25.4555 11.1048 26.1095C11.1048 29.1185 13.1388 31.7445 16.0518 32.4935ZM13.0978 21.3845L11.6998 19.9555C13.3098 18.3795 15.4418 17.5125 17.7008 17.5125C19.9598 17.5125 22.0908 18.3795 23.7028 19.9555L22.3048 21.3845C21.0688 20.1775 19.4338 19.5125 17.7008 19.5125C15.9678 19.5125 14.3328 20.1775 13.0978 21.3845ZM7.43777 1.99951H27.9648L32.3978 7.89651H3.00377L7.43777 1.99951ZM1.00077 9.89651H34.4008C34.7798 9.89651 35.1268 9.68251 35.2958 9.34251C35.4658 9.00351 35.4288 8.59851 35.1998 8.29551L29.2628 0.399512C29.0738 0.147512 28.7778 -0.000488281 28.4638 -0.000488281H6.93877C6.62477 -0.000488281 6.32877 0.147512 6.13977 0.399512L0.201773 8.29551C-0.0272273 8.59851 -0.0642275 9.00351 0.105773 9.34251C0.274773 9.68251 0.621772 9.89651 1.00077 9.89651ZM2.06077 42.1135H33.4008V13.4055H2.06077V42.1135ZM34.4008 11.4055H1.06077C0.508772 11.4055 0.0607725 11.8525 0.0607725 12.4055V43.1135C0.0607725 43.6655 0.508772 44.1135 1.06077 44.1135H34.4008C34.9538 44.1135 35.4008 43.6655 35.4008 43.1135V12.4055C35.4008 11.8525 34.9538 11.4055 34.4008 11.4055Z" fill="#7AA116"/>
</svg>
