<svg width="18" height="19" viewBox="0 0 18 19" fill="none" xmlns="http://www.w3.org/2000/svg">
<path d="M1.01 10.69L8.93 15.83L16.99 10.67L18 11.85L8.93 17.69L0 11.85L1.01 10.69Z" fill="#50E6FF"/>
<path d="M1.60999 10.03L8.92999 1.31L16.4 10.04L8.92999 14.76L1.60999 10.03Z" fill="white"/>
<path d="M8.92999 1.31V14.76L1.60999 10.03L8.92999 1.31Z" fill="#50E6FF"/>
<path d="M8.92999 1.31V14.76L16.4 10.04L8.92999 1.31Z" fill="url(#paint0_linear_1_781)"/>
<path d="M8.92999 8.26001L16.4 10.04L8.92999 14.76V8.26001Z" fill="#53B1E0"/>
<path d="M8.92999 14.76L1.60999 10.03L8.92999 8.26001V14.76Z" fill="#9CEBFF"/>
<path d="M8.92999 17.69L18 11.85L16.99 10.67L8.92999 15.83V17.69Z" fill="url(#paint1_linear_1_781)"/>
<defs>
<linearGradient id="paint0_linear_1_781" x1="13.25" y1="13.52" x2="8.61999" y2="4.75" gradientUnits="userSpaceOnUse">
<stop stop-color="#1988D9"/>
<stop offset="0.9" stop-color="#54AEF0"/>
</linearGradient>
<linearGradient id="paint1_linear_1_781" x1="11.26" y1="10.97" x2="14.46" y2="16.49" gradientUnits="userSpaceOnUse">
<stop offset="0.1" stop-color="#54AEF0"/>
<stop offset="0.29" stop-color="#4FABEE"/>
<stop offset="0.51" stop-color="#41A2E9"/>
<stop offset="0.74" stop-color="#2A93E0"/>
<stop offset="0.88" stop-color="#1988D9"/>
</linearGradient>
</defs>
</svg>
