<?xml version="1.0" standalone="no"?>
<!DOCTYPE svg PUBLIC "-//W3C//DTD SVG 20010904//EN"
 "http://www.w3.org/TR/2001/REC-SVG-20010904/DTD/svg10.dtd">
<svg version="1.0" xmlns="http://www.w3.org/2000/svg"
 width="423.000000pt" height="512.000000pt" viewBox="0 0 423.000000 512.000000"
 preserveAspectRatio="xMidYMid meet">

<g transform="translate(0.000000,512.000000) scale(0.100000,-0.100000)"
fill="#000000" stroke="none">
<path d="M0 2560 l0 -2560 2115 0 2115 0 0 535 0 535 -1051 -526 c-578 -289
-1053 -523 -1055 -521 -2 2 -3 1147 -2 2545 l3 2540 1047 -524 c576 -288 1050
-524 1053 -524 3 0 5 239 5 530 l0 530 -2115 0 -2115 0 0 -2560z m1640 2042
l45 -18 3 -2021 2 -2021 -87 -32 c-122 -45 -235 -87 -255 -95 -17 -7 -18 99
-18 2147 l0 2155 133 -49 c72 -26 152 -56 177 -66z m-850 -215 c30 -9 89 -27
130 -39 l75 -23 3 -1762 2 -1762 -82 -24 c-111 -34 -195 -57 -202 -57 -3 0 -6
831 -6 1846 0 1473 3 1845 13 1841 6 -2 37 -12 67 -20z m-482 -246 c43 -10 89
-22 105 -25 l27 -6 0 -1546 c0 -1227 -3 -1545 -12 -1548 -7 -2 -47 -11 -88
-20 -41 -9 -85 -19 -97 -22 l-23 -6 0 1596 c0 878 3 1596 6 1596 3 0 40 -9 82
-19z"/>
</g>
</svg>
