<?xml version="1.0" standalone="no"?>
<!DOCTYPE svg PUBLIC "-//W3C//DTD SVG 20010904//EN"
 "http://www.w3.org/TR/2001/REC-SVG-20010904/DTD/svg10.dtd">
<svg version="1.0" xmlns="http://www.w3.org/2000/svg"
 width="2048.000000pt" height="2048.000000pt" viewBox="0 0 2048.000000 2048.000000"
 preserveAspectRatio="xMidYMid meet">

<g transform="translate(0.000000,2048.000000) scale(0.100000,-0.100000)"
fill="#000000" stroke="none">
<path d="M0 10240 l0 -10240 10240 0 10240 0 0 10240 0 10240 -10240 0 -10240
0 0 -10240z m10433 6777 c21 -10 57 -35 80 -57 38 -35 278 -525 2467 -5039
l2425 -5000 600 -1 600 0 51 -24 c27 -13 66 -42 87 -66 72 -84 67 35 67 -1654
0 -1004 -4 -1533 -10 -1558 -18 -63 -70 -129 -130 -162 l-55 -31 -1755 0
-1755 0 -55 31 c-30 17 -67 46 -81 65 -15 19 -1115 2276 -2445 5016 l-2418
4983 -1005 2 c-949 3 -1008 4 -1042 21 -47 23 -103 79 -126 126 -17 34 -18
112 -21 1591 -2 1052 0 1567 7 1591 25 85 110 160 202 178 24 5 996 8 2159 7
2010 -1 2117 -2 2153 -19z m-2637 -5301 c27 -13 66 -42 85 -64 22 -26 350
-691 924 -1874 837 -1726 890 -1837 893 -1895 2 -33 -1 -77 -8 -97 -6 -19
-442 -974 -969 -2122 -645 -1405 -968 -2100 -991 -2127 -18 -22 -56 -50 -84
-63 l-51 -24 -1814 0 c-1372 0 -1823 3 -1853 12 -57 17 -131 87 -158 149 -17
41 -21 66 -18 118 3 64 61 187 1850 3976 1063 2250 1860 3925 1877 3946 71 86
210 115 317 65z"/>
<path d="M6440 15275 l0 -1225 953 0 953 0 52 -26 c29 -14 65 -41 80 -60 15
-18 1116 -2277 2447 -5019 l2420 -4985 1463 0 1462 0 0 1209 0 1210 -547 3
c-544 3 -548 3 -593 25 -25 13 -62 40 -83 61 -30 31 -514 1021 -2460 5033
l-2423 4994 -1862 3 -1862 2 0 -1225z"/>
<path d="M6065 7423 c-890 -1885 -1620 -3431 -1622 -3436 -2 -4 652 -7 1454
-7 l1459 0 887 1933 c488 1063 887 1939 887 1947 0 10 -1289 2679 -1424 2948
l-22 43 -1619 -3428z"/>
</g>
</svg>
