<svg width="64" height="64" viewBox="0 0 64 64" fill="none" xmlns="http://www.w3.org/2000/svg">
<g clip-path="url(#clip0_1_2720)">
<path d="M64 0H0V64H64V0Z" fill="#ED7100"/>
<path fill-rule="evenodd" clip-rule="evenodd" d="M22.6794 52H13.5741L23.8376 30.41L28.3997 39.861L22.6794 52ZM24.7269 27.667C24.5606 27.321 24.2121 27.103 23.8306 27.103H23.8277C23.4452 27.104 23.0967 27.325 22.9324 27.672L11.0973 52.569C10.9499 52.879 10.9708 53.243 11.1541 53.534C11.3353 53.824 11.654 54 11.9956 54H23.3098C23.6952 54 24.0448 53.777 24.2101 53.428L30.4045 40.284C30.5329 40.01 30.5319 39.692 30.3995 39.42L24.7269 27.667ZM51.0082 52H41.9856L26.9547 19.578C26.7914 19.226 26.4389 19 26.0525 19H20.128L20.1349 12H31.8146L46.7747 44.42C46.9381 44.774 47.2906 45 47.679 45H51.0082V52ZM52.0041 43H48.3144L33.3543 10.58C33.1909 10.226 32.8384 10 32.451 10H19.14C18.5913 10 18.1452 10.447 18.1442 10.999L18.1362 19.999C18.1362 20.265 18.2408 20.519 18.427 20.707C18.6142 20.895 18.8672 21 19.1311 21H25.4171L40.4479 53.422C40.6112 53.774 40.9628 54 41.3502 54H52.0041C52.5548 54 53 53.552 53 53V44C53 43.448 52.5548 43 52.0041 43Z" fill="white"/>
</g>
<defs>
<clipPath id="clip0_1_2720">
<rect width="64" height="64" fill="white"/>
</clipPath>
</defs>
</svg>
