<svg width="24" height="24" viewBox="0 0 24 24" fill="none" xmlns="http://www.w3.org/2000/svg">
<g clip-path="url(#clip0_1_7561)">
<path d="M24 0H0V24H24V0Z" fill="#7AA116"/>
<path fill-rule="evenodd" clip-rule="evenodd" d="M17.908 13.051L17.949 12.807C18.215 12.96 18.419 13.089 18.564 13.192C18.394 13.164 18.166 13.114 17.908 13.051ZM16.049 18.093C15.999 18.396 14.979 19 11.478 19C8.044 19 7.043 18.397 6.993 18.09L5.259 7.965C6.696 8.668 9.152 9 11.5 9C13.85 9 16.311 8.666 17.748 7.962L16.94 12.775C15.385 12.267 13.568 11.398 12.644 10.955L12.474 10.873C12.409 10.384 12.007 10 11.5 10C10.948 10 10.5 10.449 10.5 11C10.5 11.551 10.948 12 11.5 12C11.721 12 11.914 11.914 12.079 11.793L12.213 11.857C13.184 12.323 15.119 13.247 16.773 13.77L16.049 18.093ZM11.5 5C15.761 5 17.971 6.037 18 6.49V6.519C17.946 6.977 15.735 8 11.5 8C7.27 8 5.059 6.98 5 6.521V6.489C5.03 6.035 7.242 5 11.5 5ZM19 6.5C19 4.782 15.112 4 11.5 4C7.887 4 4 4.782 4 6.5L4.047 6.816L6.007 18.255C6.197 19.425 7.936 20 11.478 20C16.207 20 16.914 18.991 17.035 18.257L17.742 14.043C18.32 14.183 18.731 14.239 19.023 14.239C19.485 14.239 19.661 14.104 19.783 13.96C19.929 13.786 19.985 13.567 19.942 13.343C19.849 12.868 19.33 12.416 18.125 11.76L18.954 6.814L19 6.5Z" fill="white"/>
</g>
<defs>
<clipPath id="clip0_1_7561">
<rect width="24" height="24" fill="white"/>
</clipPath>
</defs>
</svg>
