<svg width="37" height="44" viewBox="0 0 37 44" fill="none" xmlns="http://www.w3.org/2000/svg">
<path fill-rule="evenodd" clip-rule="evenodd" d="M14.523 2C8.936 2 5.487 3.618 2 5.632V42.923H0V5.057C0 4.701 0.188 4.373 0.494 4.193C4.267 1.983 8.178 0 14.523 0C20.418 0 24.734 2.225 28.203 4.013L28.504 4.167C28.837 4.339 29.046 4.682 29.046 5.057V13.605H27.046V5.666C23.658 3.921 19.807 2 14.523 2ZM24.951 22.485C18.544 22.485 15.239 20.713 15.239 19.957C15.239 19.201 18.544 17.43 24.951 17.43C31.358 17.43 34.663 19.201 34.663 19.957C34.663 20.713 31.358 22.485 24.951 22.485ZM34.663 23.417C34.663 24.173 31.358 25.944 24.951 25.944C18.544 25.944 15.239 24.173 15.239 23.417V22.64C17.49 23.896 21.31 24.485 24.951 24.485C28.591 24.485 32.412 23.896 34.663 22.64V23.417ZM34.663 35.727C34.663 36.482 31.358 38.254 24.951 38.254C18.544 38.254 15.239 36.482 15.239 35.727V26.1C17.49 27.354 21.31 27.944 24.951 27.944C28.591 27.944 32.412 27.354 34.663 26.1V35.727ZM34.663 39.396C34.663 40.151 31.358 41.923 24.951 41.923C18.544 41.923 15.239 40.151 15.239 39.396V38.409C17.49 39.664 21.31 40.254 24.951 40.254C28.591 40.254 32.412 39.664 34.663 38.409V39.396ZM24.951 15.43C19.31 15.43 13.239 16.847 13.239 19.957V39.396C13.239 42.506 19.31 43.923 24.951 43.923C30.591 43.923 36.663 42.506 36.663 39.396V19.957C36.663 16.847 30.591 15.43 24.951 15.43Z" fill="#7AA116"/>
</svg>
