<svg width="40" height="40" viewBox="0 0 40 40" fill="none" xmlns="http://www.w3.org/2000/svg">
<path d="M40 0H0V40H40V0Z" fill="#8C4FFF"/>
<path fill-rule="evenodd" clip-rule="evenodd" d="M30.9705 21.0294L28.0265 19.7664V30.2554C30.5715 29.9034 30.9585 27.2874 30.9745 27.1684L30.9705 21.0294ZM27.0265 30.2694V19.7594L23.9915 21.0324V27.2334C24.0045 27.2874 24.4365 30.0004 27.0265 30.2694ZM27.3325 18.5474C27.4565 18.4944 27.5985 18.4954 27.7235 18.5484L31.6675 20.2404C31.8515 20.3194 31.9705 20.4994 31.9705 20.6994V27.2334C31.7875 28.6804 30.6135 31.2964 27.4435 31.2964C24.3685 31.2964 23.1895 28.6844 22.9955 27.3024L22.9915 20.6994C22.9915 20.4984 23.1125 20.3164 23.2975 20.2384L27.3325 18.5474ZM32.9825 19.1844L27.5215 16.7784L21.9915 19.1054V26.2334C21.9905 26.2754 21.9375 29.1014 23.6485 30.8564C24.5655 31.7974 25.8425 32.2754 27.4435 32.2754C29.0455 32.2754 30.3305 31.7964 31.2625 30.8534C32.9975 29.0954 32.9825 26.2684 32.9825 26.2404V19.1844ZM31.9795 31.5504C30.8525 32.6944 29.3255 33.2754 27.4435 33.2754C25.5595 33.2754 24.0395 32.6944 22.9265 31.5484C20.9215 29.4854 20.9875 26.3514 20.9915 26.2194V18.7734C20.9915 18.5724 21.1115 18.3904 21.2965 18.3124L27.3315 15.7724C27.4585 15.7204 27.6025 15.7194 27.7275 15.7764L33.6835 18.4014C33.8655 18.4814 33.9825 18.6604 33.9825 18.8584V26.2334C33.9845 26.3584 34.0095 29.4884 31.9795 31.5504ZM10.9915 24.2364H18.9915V25.2364H10.9915C8.18051 25.2364 6.18051 23.2204 6.01251 20.2204C6.00051 20.1094 5.99951 19.9754 5.99951 19.8414C5.99951 17.3324 7.31751 15.6184 9.81651 14.8624C9.79751 14.6354 9.78451 14.3964 9.78451 14.2154C9.78451 11.2994 11.3615 8.77036 13.8015 7.77036C17.0995 6.42236 20.8435 6.87636 22.9075 8.87436C23.6525 9.59836 24.2315 10.4164 24.6675 11.3594C25.2765 10.9094 26.0675 10.6984 27.0165 10.7454C28.7965 10.8354 30.1655 12.4584 30.4495 14.7524C31.9475 14.8764 32.9345 15.6354 33.4595 17.0604L32.5225 17.4064C32.0945 16.2494 31.3145 15.7334 29.9915 15.7334C29.7265 15.7334 29.5075 15.5274 29.4915 15.2634C29.3535 12.9254 28.0855 11.8004 26.9655 11.7444C26.0205 11.6914 25.3205 11.9634 24.8865 12.5354C24.7755 12.6804 24.6015 12.7524 24.4135 12.7284C24.2335 12.7004 24.0815 12.5774 24.0185 12.4054C23.6145 11.3024 23.0235 10.3824 22.2115 9.59136C20.4235 7.86136 17.1215 7.49236 14.1805 8.69636C12.1175 9.54136 10.7845 11.7074 10.7845 14.2154C10.7845 14.4884 10.8195 14.9114 10.8505 15.1744C10.8805 15.4254 10.7195 15.6584 10.4745 15.7184C8.16851 16.2904 6.99951 17.6774 6.99951 19.8414C6.99951 19.9424 6.99851 20.0424 7.00851 20.1434C7.14951 22.6384 8.71151 24.2364 10.9915 24.2364Z" fill="white"/>
</svg>
